<svg xmlns="http://www.w3.org/2000/svg" viewBox="0 0 244.18 399.56"><defs><style>.cls-1{fill:#ededed;}.cls-2{fill:#e34a0e;}.cls-3{fill:#282f39;}.cls-4{fill:none;stroke:#282f39;stroke-miterlimit:10;stroke-width:4.75px;}</style></defs><g id="Layer_2" data-name="Layer 2"><g id="svg2"><g id="g10"><g id="g1356"><g id="g1012"><path id="path188" class="cls-1" d="M183.27,28.89c14.59-3.95,26.84-3,36.89,12s11.33,28.78-1.59,44.76-29.82,32.35-37,32.26-12.52-18-19.78-20.06-10.95-4-17.89,6.35-6.14,26.94-15.13,37.91a120.11,120.11,0,0,1-17.86,17.73s19.53,5.39,24.62,6.89,5.68,3.48,15.29,2,19.34-3.69,27.77.54c6.14,3.07,15.57,11.56,14,14.38s-3.64-1.5-7.61-3-5.52-2.35-10.21.24-12.5,6.28-15.16,5.54v1.23s36.49-1.56,55.85,2.95,24.26,15.42,24.09,20.7c0,0,2.91-.27,3.31,5.32s-1.52,32.46-13.67,54.17-35.62,59.89-35.79,74.39-1.76,17.44,9.78,22.64c8.94,4,20.36,6.49,22.25,8.57s1.48,7.18-6.64,8.76-6.43-1.79-6.43-1.79,6.68,2.47,7.86,4.23-.86,9.17-19.84,10.3c-14.17.85-11.21-.57-21.76-4.25s-16-9.18-23.7-12-11.35-4.41-13.66-11.47,2.19-14.33,6.39-18.11c14.22-12.82,13-9.67,14.72-42.66,1.12-20.86,12.38-48,16-56.53s7.4-16.34,7.4-16.34-41.36,12.13-72,11.38S47,254,35.81,241.43s-8.15-37.32-5.38-44.7,3.44-20.7,2.93-29.33.55-30.55,9.57-53.29S72,64.81,89.43,54.33s30.12-8.38,37.89-5,20.57,8.74,26.29,6.24,7.51-3.16,12.5-10.52S177,30.57,183.27,28.89"/><path id="path192" class="cls-2" d="M142.58,64.42a23.52,23.52,0,0,0-.9,5.19,3.82,3.82,0,0,0,1.49,2.76,6.61,6.61,0,0,0,1.63,1,7.93,7.93,0,0,0,2,.43,25.34,25.34,0,0,0,8.46-1.32c2.42-.92,4-3.23,3.64-5.18A22.51,22.51,0,0,0,157,62.35a5,5,0,0,0-4.85-2.4c-2,.35-4,.67-5.83.93a3.63,3.63,0,0,0-1.2.44,4.86,4.86,0,0,0-1,.77,5.85,5.85,0,0,0-1.53,2.33"/><path id="path196" class="cls-2" d="M123.7,59.84a21.73,21.73,0,0,0-.59,5,5,5,0,0,0,3.47,4.23c2.07.56,4.17,1,6.27,1.46a4.78,4.78,0,0,0,4.86-2.28,22.42,22.42,0,0,0,1.55-4.8c.26-1.86-1.17-4-3.32-4.85a33,33,0,0,0-7.28-1.69c-2.3-.17-4.44,1.12-5,2.91"/><path id="path200" class="cls-2" d="M104.07,60.36a21.88,21.88,0,0,0,.83,4.76,4.72,4.72,0,0,0,4.22,2.9c2-.07,4-.16,6-.31a4.72,4.72,0,0,0,4-3.35,21.1,21.1,0,0,0,.3-4.83,4.58,4.58,0,0,0-4.2-3.64,28.59,28.59,0,0,0-7.26.37c-2.21.49-3.87,2.3-3.86,4.1"/><path id="path204" class="cls-2" d="M85.89,68.06a19.68,19.68,0,0,0,2.49,3.83A4.05,4.05,0,0,0,90.58,73a4.66,4.66,0,0,0,2.5-.24c1.67-.82,3.37-1.56,5-2.43a4.58,4.58,0,0,0,1.82-1.83,4.24,4.24,0,0,0,.59-2.47,20.56,20.56,0,0,0-1.21-4.46,3.49,3.49,0,0,0-2-1.7,5.36,5.36,0,0,0-3-.11,26.26,26.26,0,0,0-6.47,3.12,5.22,5.22,0,0,0-1.91,2.49,3.53,3.53,0,0,0,0,2.65"/><path id="path208" class="cls-2" d="M72.39,80.54a18.26,18.26,0,0,0,3.1,3,4.18,4.18,0,0,0,4.67-.47c.73-.64,1.43-1.3,2.1-2s1.39-1.31,2-2a4.86,4.86,0,0,0,1.09-2.38,3.94,3.94,0,0,0-.29-2.42,18.92,18.92,0,0,0-2.59-3.49,3.22,3.22,0,0,0-2.3-.81,4.94,4.94,0,0,0-2.63.93A26.87,26.87,0,0,0,75.09,73c-.77.78-1.51,1.58-2.22,2.41a4.37,4.37,0,0,0-.48,5.1"/><path id="path212" class="cls-2" d="M61.68,95A17.69,17.69,0,0,0,65,97.33a3.21,3.21,0,0,0,2.25.09,4.85,4.85,0,0,0,2.07-1.33c.6-.73,1.16-1.48,1.7-2.26l1.59-2.33a4.26,4.26,0,0,0-.1-4.67,17.48,17.48,0,0,0-3.07-2.7c-1.29-.77-3.22-.31-4.54,1.05-.34.38-.69.77-1,1.17s-.61.83-.91,1.25c-.59.84-1.15,1.71-1.68,2.59a4.54,4.54,0,0,0-.57,2.64A3.5,3.5,0,0,0,61.68,95"/><path id="path216" class="cls-2" d="M53.79,109.51a15.75,15.75,0,0,0,3.41,1.76,3.76,3.76,0,0,0,3.93-1.72c.95-1.53,1.74-3.16,2.55-4.77a4.06,4.06,0,0,0-.68-4.39,15.9,15.9,0,0,0-3.24-2.1,3.66,3.66,0,0,0-4.1,1.6A30.21,30.21,0,0,0,52.91,105a4,4,0,0,0,.88,4.48"/><path id="path220" class="cls-2" d="M47.74,125a15.38,15.38,0,0,0,3.42,1.18,3.63,3.63,0,0,0,3.46-2.13c.7-1.55,1.24-3.17,1.81-4.79a3.81,3.81,0,0,0-1.16-4A15.8,15.8,0,0,0,52,113.7a3.5,3.5,0,0,0-3.66,2,28.61,28.61,0,0,0-2,5.18,3.73,3.73,0,0,0,1.37,4.1"/><path id="path224" class="cls-2" d="M44.44,140a14.15,14.15,0,0,0,3.37.43,2.86,2.86,0,0,0,1.73-.78,4.18,4.18,0,0,0,1.09-1.75c.21-.76.39-1.53.53-2.3l.21-1.17c.09-.39.16-.78.23-1.17A3.56,3.56,0,0,0,50,129.71a14.4,14.4,0,0,0-3.26-1,3.38,3.38,0,0,0-3.15,2.45c-.13.42-.26.84-.38,1.26s-.2.88-.28,1.31c-.17.88-.32,1.76-.43,2.65a4.06,4.06,0,0,0,.49,2.28A2.74,2.74,0,0,0,44.44,140"/><path id="path228" class="cls-2" d="M44.74,156.26a13.38,13.38,0,0,0,3.16-.36,3.3,3.3,0,0,0,2-3.07c0-1.52-.11-3-.27-4.51a3.27,3.27,0,0,0-2.31-2.75,13,13,0,0,0-3.18,0,3.24,3.24,0,0,0-2.27,3.07,27.21,27.21,0,0,0,.3,4.95,3.18,3.18,0,0,0,2.56,2.72"/><path id="path232" class="cls-2" d="M46.68,170.75a12.26,12.26,0,0,0,3-.4,3,3,0,0,0,1.77-3,31.75,31.75,0,0,0-.58-4.39,3,3,0,0,0-2.47-2.38,12.33,12.33,0,0,0-3,.4,3.07,3.07,0,0,0-1.76,3,31.66,31.66,0,0,0,.58,4.37,3,3,0,0,0,2.46,2.39"/><path id="path236" class="cls-2" d="M47.78,184.85a11.66,11.66,0,0,0,2.77,0,2.79,2.79,0,0,0,2-2.64,24.25,24.25,0,0,0-.22-4.27,2.76,2.76,0,0,0-2.19-2.4,11.52,11.52,0,0,0-2.75.28,2.87,2.87,0,0,0-1.78,2.65c0,1.32.07,2.64.2,3.94a2.85,2.85,0,0,0,2,2.41"/><path id="path240" class="cls-2" d="M46.07,197.2a10.57,10.57,0,0,0,2.41.88,2.48,2.48,0,0,0,2.46-1.84c.11-.33.22-.66.31-1s.15-.67.21-1a14.45,14.45,0,0,0,.29-2,2.59,2.59,0,0,0-1.53-2.68,10.41,10.41,0,0,0-2.55-.25,2.62,2.62,0,0,0-2.08,1.95c-.11.57-.24,1.13-.35,1.69-.06.28-.11.57-.15.85s-.11.55-.17.84a2.74,2.74,0,0,0,1.15,2.62"/><path id="path244" class="cls-2" d="M39.5,207.63A10.44,10.44,0,0,0,41,209.46a2.28,2.28,0,0,0,2.78-.32c.44-.45.87-.93,1.29-1.42a13.37,13.37,0,0,0,1.1-1.57,2.82,2.82,0,0,0,.33-.81,3.27,3.27,0,0,0,.06-.82,1.94,1.94,0,0,0-.55-1.28A9.55,9.55,0,0,0,44,202a2,2,0,0,0-1.29,0,2.6,2.6,0,0,0-.61.28,2.27,2.27,0,0,0-.54.43c-.34.37-.61.79-1,1.17s-.64.77-.94,1.19a2.46,2.46,0,0,0-.21,2.63"/><path id="path248" class="cls-3" d="M113.4,157.09a46.6,46.6,0,0,1,4.37-3.62,27.38,27.38,0,0,0,4-3.74,41,41,0,0,0,3.33-4.38c1-1.53,2-3.12,2.91-4.75,1.81-3.26,3.44-6.65,5-10.11s3-7,4.39-10.49,2.85-7.09,4.42-10.63c.8-1.77,1.63-3.54,2.61-5.28A23.37,23.37,0,0,1,146,101.5a9,9,0,0,1,2.55-2.38,28.18,28.18,0,0,1,5.36-2.49,16.73,16.73,0,0,1,6.07-.94,10,10,0,0,1,6.17,2.38,10.67,10.67,0,0,1,2.12,2.62c.53.87,1,1.7,1.46,2.54a50.26,50.26,0,0,0,6,9.1,12.85,12.85,0,0,0,3.81,3,6,6,0,0,0,4.19.43,6.64,6.64,0,0,0,1-.34c.4-.19.89-.38,1.22-.58.72-.36,1.51-.81,2.26-1.28,1.52-.94,3-2,4.46-3.08a101.37,101.37,0,0,0,8.38-7.17,109,109,0,0,0,14.51-16.78A73.85,73.85,0,0,0,221.25,77a53.41,53.41,0,0,0,2.12-5.08c.16-.42.29-.86.43-1.3L224,70l.1-.32,0-.11.05-.18c.11-.46.24-.94.34-1.38l.24-1.26A31.49,31.49,0,0,0,224.51,56,39.35,39.35,0,0,0,221,45.72a38.89,38.89,0,0,0-6.11-8.89,28.38,28.38,0,0,0-8.29-6.38,21.7,21.7,0,0,0-2.36-1l-.15-.06-.12,0-.33-.1-.66-.2-1.23-.31a26.54,26.54,0,0,0-5.12-.62,29.75,29.75,0,0,0-10.26,1.63A32.49,32.49,0,0,0,169.8,42.46c-.49.74-1,1.51-1.38,2.29s-.95,1.74-1.48,2.57a28.86,28.86,0,0,1-3.69,4.81,19.16,19.16,0,0,1-4.9,3.78,15.52,15.52,0,0,1-6,1.78,29.48,29.48,0,0,1-11.62-1.94c-3.61-1.27-7-2.84-10.39-4.18a42.64,42.64,0,0,0-10.19-2.92,26,26,0,0,0-5.12-.21c-1.88.12-3.57.3-5.35.57A50.14,50.14,0,0,0,99.4,51.7a51.11,51.11,0,0,0-9.54,4.88A84.57,84.57,0,0,0,73.39,71c-2.49,2.75-4.91,5.58-7.23,8.51C65,81,63.8,82.5,62.68,84s-2.26,3-3.37,4.48-2.17,3-3.24,4.57-2.07,3.1-3,4.69a100,100,0,0,0-5.36,9.72c-.83,1.66-1.54,3.36-2.27,5.06s-1.37,3.43-1.95,5.19-1.14,3.53-1.69,5.31L41,125.7c-.25.89-.47,1.8-.68,2.71l-.64,2.73-.58,2.76-.27,1.32-.25,1.42c-.19,1-.28,1.79-.42,2.68a84.92,84.92,0,0,0-.66,11c0,7.41.88,14.94,1.09,22.89A68.45,68.45,0,0,1,38,185.4a47.61,47.61,0,0,1-1.4,6.16l-.49,1.52c-.18.5-.37,1-.56,1.5s-.4,1-.61,1.47l-.59,1.33c-.26.62-.58,1.47-.83,2.26s-.5,1.66-.71,2.52c-.43,1.71-.78,3.47-1.07,5.25A58.48,58.48,0,0,0,31,218.12a41.37,41.37,0,0,0,1.48,10.34,24.3,24.3,0,0,0,4.42,8.74,19.19,19.19,0,0,0,3.42,3.26,20.53,20.53,0,0,0,2,1.29c.34.21.7.37,1,.57l.55.26.51.21a28.91,28.91,0,0,0,4.73,1.4c1.68.37,3.42.66,5.18.9A170.71,170.71,0,0,0,76,246.25c7.3,0,14.64-.17,22-.5s14.68-.8,22-1.29,14.72-1,22-1.82c14.59-1.64,29.17-4,43.68-6.67h0l1.08-.22-.51,1c-2.12,4.29-4,8.77-5.76,13.25s-3.43,9-5,13.59-3.06,9.17-4.46,13.8c-.7,2.32-1.4,4.61-2,6.95s-1.19,4.64-1.68,7c-1,4.7-1.75,9.45-2.29,14.23s-.89,9.6-1.13,14.44l-.36,7.3c-.13,2.45-.29,4.92-.62,7.44a32.17,32.17,0,0,1-.74,3.85,17.29,17.29,0,0,1-.65,2c-.12.33-.29.66-.44,1l-.12.24,0,.06-.05.09,0,.09-.22.4a31.82,31.82,0,0,1-4.47,6.25,35.78,35.78,0,0,1-5.75,4.89,28.82,28.82,0,0,0-5.14,4.19,13,13,0,0,0-1.75,2.51,9.19,9.19,0,0,0-.89,2.74,14.1,14.1,0,0,0,3.52,11.46,11.67,11.67,0,0,0,2.29,1.93c.21.13.42.26.64.38l.3.16.4.2.79.39.75.35c2,.92,4.17,1.66,6.41,2.49s4.5,1.78,6.68,2.83,4.3,2.2,6.38,3.39c1,.6,2.07,1.2,3.09,1.83l1.49.91c.5.3,1,.63,1.51.89a45.45,45.45,0,0,0,12.49,4.82,43.89,43.89,0,0,0,6.68,1,48.21,48.21,0,0,0,6.8.06A79.76,79.76,0,0,0,216.46,394l.31,1A58.18,58.18,0,0,1,203.05,399a52.29,52.29,0,0,1-7.2.56,46.44,46.44,0,0,1-7.25-.59,43.63,43.63,0,0,1-13.91-4.75c-.55-.29-1-.59-1.56-.88l-1.54-.91c-1-.59-2-1.18-3-1.75-2-1.15-4.06-2.23-6.12-3.23s-4.14-1.89-6.3-2.7-4.43-1.59-6.71-2.65c-.59-.27-1.12-.53-1.64-.8l-.4-.2c-.19-.09-.31-.17-.47-.25s-.59-.34-.88-.53a16.34,16.34,0,0,1-3.15-2.66,18.53,18.53,0,0,1-4-7.14,18.13,18.13,0,0,1-.59-8.3,13.57,13.57,0,0,1,1.41-4.13,17.6,17.6,0,0,1,2.39-3.36A33.35,33.35,0,0,1,148,350a30.88,30.88,0,0,0,5.16-4.26,27.36,27.36,0,0,0,3.94-5.39l.22-.39.06-.1s0-.06,0,0l0,0,.08-.17a5.73,5.73,0,0,0,.3-.66,12.86,12.86,0,0,0,.51-1.48,32.25,32.25,0,0,0,.68-3.31c.67-4.61.84-9.52,1.2-14.38s.75-9.78,1.41-14.65a145.31,145.31,0,0,1,2.7-14.51c.56-2.4,1.21-4.76,1.9-7.14.36-1.17.7-2.3,1.09-3.49l1.15-3.47c1.57-4.61,3.19-9.19,4.93-13.73s3.59-9,5.55-13.48,4-8.81,6.4-13.08l.57.81h0c-14.32,3.81-28.78,7-43.43,9.44-1.83.28-3.69.59-5.52.84l-2.74.37-2.77.35-11,1.3q-11,1.28-22.1,2.16c-7.38.59-14.79,1.07-22.23,1.26a177.3,177.3,0,0,1-22.52-.66c-1.9-.21-3.81-.48-5.75-.85a36.49,36.49,0,0,1-5.92-1.62l-.79-.32-.71-.31c-.47-.24-1-.46-1.42-.73a27,27,0,0,1-2.73-1.71,26.39,26.39,0,0,1-4.78-4.43,31.9,31.9,0,0,1-6-11.39,48.79,48.79,0,0,1-2-12.35,67.48,67.48,0,0,1,.69-12.24,60,60,0,0,1,1.19-6c.25-1,.53-2,.85-3A32.53,32.53,0,0,1,27.34,194l.57-1.29c.16-.39.34-.77.48-1.17l.45-1.19.39-1.21a40,40,0,0,0,1.13-5A64.18,64.18,0,0,0,31,173.34c0-3.7-.27-7.5-.45-11.36s-.29-7.81-.18-11.79a85.05,85.05,0,0,1,1.08-12c.19-1,.36-2.09.57-3l.3-1.4.36-1.49.69-2.85.77-2.83c.25-1,.53-1.89.82-2.83l.88-2.82c.64-1.86,1.25-3.73,2-5.56s1.49-3.64,2.27-5.45,1.67-3.56,2.61-5.28a105,105,0,0,1,6-10c2.15-3.22,4.43-6.32,6.77-9.35,1.17-1.51,2.35-3,3.57-4.49s2.41-2.95,3.63-4.39c2.44-2.92,4.94-5.81,7.56-8.6s5.36-5.48,8.26-8a76,76,0,0,1,9.19-7A56,56,0,0,1,98,47.71a54,54,0,0,1,11.12-2.84c1.87-.27,3.85-.47,5.65-.57a29.14,29.14,0,0,1,5.92.26,47.41,47.41,0,0,1,11.07,3.21c3.5,1.42,6.85,3,10.22,4.19a26.26,26.26,0,0,0,10.07,1.81,13.34,13.34,0,0,0,8.56-4.38,25.62,25.62,0,0,0,3.19-4.18c.48-.78.89-1.52,1.36-2.37s1-1.75,1.56-2.59a36.24,36.24,0,0,1,18.45-14.18,33.59,33.59,0,0,1,11.51-1.82,29.77,29.77,0,0,1,5.85.7c.48.13,1,.24,1.46.38l.66.19.34.1.21.07.18.07a25.75,25.75,0,0,1,2.78,1.14,32.13,32.13,0,0,1,9.42,7.21,42.71,42.71,0,0,1,6.72,9.78,43.52,43.52,0,0,1,3.91,11.34,35.75,35.75,0,0,1,.27,12.17l-.3,1.57c-.11.49-.24.94-.35,1.41l-.05.17s0,.19-.06.24l-.11.35-.23.72c-.14.48-.29,1-.47,1.43a52.85,52.85,0,0,1-2.28,5.49,78.3,78.3,0,0,1-5.92,10.08,112.85,112.85,0,0,1-15,17.41A99.81,99.81,0,0,1,195,113.7c-1.54,1.14-3.11,2.24-4.77,3.26-.83.51-1.66,1-2.61,1.45-.48.26-.86.4-1.3.6s-.53.22-.81.31-.53.17-.8.24a9.51,9.51,0,0,1-6.61-.71,16.38,16.38,0,0,1-4.95-3.9,52.8,52.8,0,0,1-6.48-9.83c-.46-.83-.91-1.66-1.37-2.41a7.12,7.12,0,0,0-1.4-1.78,6.51,6.51,0,0,0-4-1.53,13.42,13.42,0,0,0-4.82.74,25.1,25.1,0,0,0-4.73,2.18,5.54,5.54,0,0,0-1.52,1.46,18.52,18.52,0,0,0-1.43,2.17c-.89,1.56-1.69,3.24-2.47,4.94-1.54,3.43-3,7-4.42,10.5a143.26,143.26,0,0,1-10.07,20.75,49,49,0,0,1-7.12,9.17,27.66,27.66,0,0,1-4.55,3.61c-1.62,1-3.14,1.93-4.65,3Z"/><path id="path252" class="cls-3" d="M212.42,383.83a17.31,17.31,0,0,1-3.51.8,30.67,30.67,0,0,1-10.08-.36c-1.07-.23-2.2-.5-3.37-.86-.59-.15-1.17-.38-1.78-.58l-.46-.16-.05,0-.13,0-.11-.05-.22-.09-.43-.18c-.14-.06-.34-.17-.5-.26a14.07,14.07,0,0,1-1.93-1.21,18.43,18.43,0,0,1-1.74-1.46,25.22,25.22,0,0,1-3.09-3.54,39.48,39.48,0,0,1-4.74-8.94,45,45,0,0,1-2.7-10.92,33.35,33.35,0,0,1,.72-12.41l.22-.79.06-.2.07-.22.12-.36c.16-.48.32-1,.52-1.48.37-1,.75-2,1.15-3,.8-2,1.66-3.91,2.55-5.88,3.57-7.85,7.68-15.89,11.91-24.22l13.21-25.55c4.48-8.71,8.83-17.68,12.69-26.76q2.92-6.81,5.61-13.62c1.79-4.52,3.51-9,5-13.53a73,73,0,0,0,3.2-13.37,27.06,27.06,0,0,0,.08-6.28,11.39,11.39,0,0,0-1.85-5.16l-.51-.7-.46-.58c-.31-.38-.66-.78-1-1.15a23.93,23.93,0,0,0-2.26-2.13,30,30,0,0,0-5.21-3.45,53.12,53.12,0,0,0-11.71-4.27,96.35,96.35,0,0,0-11.8-2.15c-3.85-.47-7.6-.76-11.21-.91-7.21-.32-13.82-.1-19.69.1s-11,.29-15.19.35l-13.24.23,0-1.09,13.24-.24c4.21-.09,9.33-.12,15.2-.19s12.5,0,19.72.14a208.45,208.45,0,0,1,23.39,1.53,62.66,62.66,0,0,1,12.73,3,34.61,34.61,0,0,1,6.35,3.07,29.19,29.19,0,0,1,3,2.17c.49.4.94.81,1.42,1.26l.71.7.59.62a14.54,14.54,0,0,1,2.44,3.58,19.72,19.72,0,0,1,1.41,4,30.53,30.53,0,0,1,.7,8.08,64.24,64.24,0,0,1-2.73,15.25,136.35,136.35,0,0,1-12.07,27.81c-2.43,4.39-5,8.73-7.5,13l-3.71,6.41q-1.83,3.19-3.6,6.41c-4.69,8.58-9.28,17-13.57,25.29s-8.31,16.31-11.83,24c-.87,1.94-1.72,3.85-2.48,5.74-.38.95-.76,1.9-1.08,2.8-.17.45-.33.93-.49,1.42l-.12.36-.05.15,0,.17-.18.66a29.18,29.18,0,0,0-.58,10.87,40.83,40.83,0,0,0,6.63,18,22.07,22.07,0,0,0,2.57,3.08,16.91,16.91,0,0,0,1.38,1.2,11.32,11.32,0,0,0,1.37.92c.11.06.19.12.34.19l.43.19.35.16.41.15c.55.19,1.07.42,1.61.57,1.06.35,2.09.61,3.08.86a83.21,83.21,0,0,0,9.35,1.57l3.4.35Z"/><path id="path256" class="cls-3" d="M218.62,384.56l.53-.23c.36-.16.88-.4,1.55-.75a22.21,22.21,0,0,0,2.36-1.43,8,8,0,0,0,2.45-2.43,1.64,1.64,0,0,0,.15-1.43,2.52,2.52,0,0,0-.47-.72l-.39-.4c-.13-.09-.22-.18-.38-.28a12.53,12.53,0,0,0-4.83-1.57A63.61,63.61,0,0,1,206.37,372a51,51,0,0,1-7.13-3.44c-.59-.36-1.19-.7-1.78-1.07l-.89-.57-.22-.14-.24-.17a4.83,4.83,0,0,1-.45-.32,13.55,13.55,0,0,1-3.35-3.56,18.52,18.52,0,0,1-2.65-9.54,40.93,40.93,0,0,1,1-9.81,101.26,101.26,0,0,1,6.47-18.88c2.69-6.17,5.79-12.22,9-18.17s6.62-11.79,10-17.47,6.82-11.24,10-16.65c1.6-2.71,3.06-5.35,4.38-8s2.52-5.37,3.59-8a126.75,126.75,0,0,0,5.14-15.34,97.38,97.38,0,0,0,2.62-13.43,45.49,45.49,0,0,0,.16-10.48,15.2,15.2,0,0,0-1.88-6.22,6.35,6.35,0,0,0-1-1.28c-.26-.25-.41-.37-.41-.37l.6-.89a5.24,5.24,0,0,1,.52.4,7.59,7.59,0,0,1,1.3,1.42,16.08,16.08,0,0,1,2.49,6.69,47.47,47.47,0,0,1,.35,10.93,90.84,90.84,0,0,1-2.09,13.93,123,123,0,0,1-4.76,15.91c-1,2.75-2.2,5.55-3.5,8.36s-2.76,5.64-4.32,8.39c-3.12,5.53-6.45,11.13-9.75,16.85s-6.68,11.52-9.85,17.42-6.19,11.86-8.87,17.85a103.06,103.06,0,0,0-6.35,18,37.12,37.12,0,0,0-1.08,8.78,14.89,14.89,0,0,0,1.9,7.57,10,10,0,0,0,2.34,2.65c.09.08.25.19.38.29l.18.13.21.14.82.57c.54.37,1.1.71,1.64,1.07a53.91,53.91,0,0,0,6.59,3.49,46.87,46.87,0,0,0,6.45,2.31c2.1.6,4.14,1,6.11,1.5a14.25,14.25,0,0,1,5.59,2.29,7.88,7.88,0,0,1,.62.55l.21.24.11.12.09.1.06.08a4.31,4.31,0,0,1,.76,1.44,3.43,3.43,0,0,1,.09,1.68,4.12,4.12,0,0,1-.56,1.38,7.07,7.07,0,0,1-1.61,1.72,12.11,12.11,0,0,1-1.59,1.08,21.89,21.89,0,0,1-2.63,1.28c-.73.3-1.29.5-1.68.63l-.59.2Z"/><path id="path260" class="cls-3" d="M74,98l-.64,2.42c-.44,1.58-1.08,3.89-2,6.79s-2,6.43-3.35,10.44-2.83,8.54-4.49,13.46q-1.23,3.71-2.56,7.69c-.89,2.64-1.8,5.39-2.68,8.2-.45,1.39-.88,2.86-1.27,4.23l-.29,1.1-.23,1c-.14.7-.28,1.4-.38,2.1a18.06,18.06,0,0,0,.51,8.23,15.72,15.72,0,0,0,4.6,6.84,26.42,26.42,0,0,0,3.52,2.7,38.26,38.26,0,0,0,4,2.22,59,59,0,0,0,8.93,3.32l1.16.34,1.15.29,2.43.62,1.21.31,1.19.25,2.36.5a127,127,0,0,0,19.37,2.3,159.88,159.88,0,0,0,19-.23c3.08-.24,6.1-.5,9.07-.85l2.21-.27,1.1-.14,1.18-.12.55-.05.61,0,1.23,0c.79,0,1.56,0,2.31.07a74.6,74.6,0,0,1,8.51,1.19,56.33,56.33,0,0,0,7.5,1,21.11,21.11,0,0,0,6.62-.78,28.68,28.68,0,0,0,5.71-2.4,32.39,32.39,0,0,1,5.4-2.55,6.89,6.89,0,0,1,2.95-.28l.71.13.6.18c.36.1.78.28,1.14.42a23.89,23.89,0,0,1,3.61,1.9c1,.63,1.81,1.21,2.46,1.69,1.29,1,1.94,1.55,1.94,1.55l-.63.87-.5-.34c-.34-.23-.84-.55-1.51-.95a30.23,30.23,0,0,0-6-2.83c-.33-.08-.61-.19-1-.27l-.54-.12-.47,0a4.66,4.66,0,0,0-2,.39,36.13,36.13,0,0,0-4.79,2.76,32.06,32.06,0,0,1-6.12,3.07l-.91.31c-.3.1-.56.16-.85.25l-.43.12-.21.06-.11,0-.17,0-.95.19a25.64,25.64,0,0,1-3.93.37c-5.33.08-10.75-1.16-16.17-1.32-.68,0-1.36,0-2,0l-1,.07-.49,0-.55.07-1,.14-1.11.19-2.24.36c-3,.47-6.12.9-9.28,1.2a164.07,164.07,0,0,1-19.61.71,129.7,129.7,0,0,1-20.25-2.22l-2.55-.52-1.28-.27L81,185.8l-2.44-.61-1.27-.34-1.24-.37a64.52,64.52,0,0,1-9.73-3.72,46,46,0,0,1-4.63-2.61,32.17,32.17,0,0,1-4.27-3.34,21.52,21.52,0,0,1-5.94-9.45,23.86,23.86,0,0,1-.45-10.78,55.17,55.17,0,0,1,2.73-9.21c2-5.66,4.11-10.89,6.06-15.71s3.73-9.23,5.36-13.12,3-7.29,4.18-10.09,2-5,2.66-6.48l.9-2.32Z"/><path id="path264" class="cls-3" d="M121.42,107.39l-3.23,6.08c-1,1.92-2.29,4.27-3.78,6.93s-3.17,5.67-5.09,8.91q-1.42,2.44-3.09,5c-.55.86-1.12,1.73-1.73,2.61l-.45.66-.48.67c-.31.43-.61.86-1,1.3-1.34,1.76-2.81,3.45-4.07,5.12a8,8,0,0,0-1.25,2.17.85.85,0,0,0,0,.34s.06.08.07.12,0,.08.09.15l.15.18.07.1.15.16a42.54,42.54,0,0,0,4.92,4.59,39.44,39.44,0,0,0,5.71,3.72,48.53,48.53,0,0,0,6.35,2.88c1.09.44,2.21.78,3.33,1.17s2.26.66,3.4,1c2.28.56,4.67,1.11,7,1.64l3.57.88c1.17.32,2.35.61,3.52.95,2.32.64,4.65,1.46,6.78,2.07a12.55,12.55,0,0,0,3.06.54l.76,0,.8,0c.52,0,1.08-.08,1.62-.13,2.19-.24,4.39-.59,6.55-.92l1.66-.25,1.6-.19c.54-.06,1-.14,1.59-.19l1.64-.09a43.25,43.25,0,0,1,12.05,1,33.57,33.57,0,0,1,9.55,3.74,23.91,23.91,0,0,1,6.2,5.09,10.77,10.77,0,0,1,1,1.26c.29.42.59.79.81,1.16.42.78.82,1.42,1.06,2l.7,1.73-1,.39-.76-1.56c-.25-.5-.67-1.06-1.1-1.75-.23-.33-.53-.66-.82-1a9,9,0,0,0-1-1.09c-2.85-3-8.18-6.16-15.14-7.41a42.43,42.43,0,0,0-11.31-.45c-4,.34-8.27,1.45-12.91,2.07-.59.08-1.17.17-1.79.2l-.92.07h-1a16.53,16.53,0,0,1-3.82-.55c-2.4-.62-4.57-1.31-6.88-1.9-1.13-.31-2.29-.58-3.44-.87l-3.48-.8c-2.37-.49-4.72-1-7.17-1.54a58.93,58.93,0,0,1-14-5.24,43.52,43.52,0,0,1-6.31-4.07,47.12,47.12,0,0,1-5.41-5l-.15-.16-.2-.24-.4-.49a4,4,0,0,1-.37-.59,4.52,4.52,0,0,1-.33-.66,5.26,5.26,0,0,1-.19-3.1,8.61,8.61,0,0,1,1-2.17A16.27,16.27,0,0,1,95.24,142c1.47-1.9,2.9-3.49,4.17-5.11,2.62-3.22,4.8-6.59,6.9-9.65L112,118.8c1.69-2.53,3.22-4.69,4.47-6.49s2.28-3.17,3-4.1l1.09-1.42Z"/><path id="path268" class="cls-3" d="M119.22,270.52H28.49a10.22,10.22,0,0,1-10-10.42v-1.8a10.22,10.22,0,0,1,10-10.42h90.73a10.22,10.22,0,0,1,10,10.42v1.8a10.22,10.22,0,0,1-10,10.42"/><path id="path270" class="cls-3" d="M79.15,348.06H68.38V268H79.15Z"/><path id="path274" class="cls-4" d="M33,379.55c.19-.59,11-34.44,40.72-34.44s40,34.44,40,34.44"/><path id="path278" class="cls-3" d="M40.22,379.55A7.19,7.19,0,1,1,33,372.07a7.33,7.33,0,0,1,7.18,7.48"/><path id="path282" class="cls-3" d="M81,379.55a7.19,7.19,0,1,1-7.18-7.48A7.34,7.34,0,0,1,81,379.55"/><path id="path286" class="cls-3" d="M120.91,379.55a7.19,7.19,0,1,1-7.18-7.48,7.34,7.34,0,0,1,7.18,7.48"/><path id="path290" class="cls-4" d="M73.76,345.11v34.44"/><path id="path294" d="M56.77,0l3.4,32.29,11.1-7.51,4.33,26.1L78.8,13.5,63.91,22.77Z"/><path id="path298" d="M14.46,32,34.9,56.54l5-12.76L57.73,62.69,40,30,32.77,46.49Z"/><path id="path302" d="M0,90.75l31,3.33L26.31,81.2l25.41,1.09L17.3,71.16l5.58,17.12Z"/></g></g></g></g></g></svg>