<svg xmlns="http://www.w3.org/2000/svg" xmlns:xlink="http://www.w3.org/1999/xlink" viewBox="0 0 200.29 465.78"><defs><style>.cls-1,.cls-5{fill:none;}.cls-2{clip-path:url(#clip-path);}.cls-3{fill:#ededed;}.cls-4{fill:#282f39;}.cls-5{stroke:#282f39;stroke-miterlimit:7.46;stroke-width:5.22px;}.cls-6{fill:#008a9f;}</style><clipPath id="clip-path" transform="translate(-350.45 -92.38)"><rect class="cls-1" width="596.78" height="596.78"/></clipPath></defs><g id="Layer_2" data-name="Layer 2"><g id="svg2"><g id="g10"><g id="g1356"><g id="g16"><g class="cls-2"><g id="g18"><g id="g24"><path id="path26" class="cls-3" d="M475.1,353.51c-6.59-2.53-19-7.25-22.41-8.75s-6.34-5.49-6.34-5.49l13,5a80.52,80.52,0,0,0,11.08,2.13c4.28.6,4.9-.38,8.25,2.49s7.71,6.85,7.71,6.85a30,30,0,0,1-11.29-2.25m69.81,200.14c0-2.65-7-6.06-7-6.06s7.32,1.47,7.15-1.68c-.15-2.8-8.63-5.8-16.89-8.12s-15.63-3.71-19.63-8.68S495.2,516,500.62,502.19s39.12-80,43.46-89.36,4.52-20.09-6.33-27.79S519,368.64,517.52,370s9.36-12.77-20.67-26.08c-18.33-8.13-22.4-8.13-36.07-18.17s-29.13-23.12-29.13-23.12,14.25-29.07,9.76-54.22-21-42.27-23.71-52.64-4.56-17,1.88-17.91,16.72,2,16.69-7.15-2.1-41.5-14.36-55.73S404.11,88,379,98.05c-11.51,4.61-20.28,17-20,33.06s10.68,30.56,16.41,36,7.17,12.08,4.24,17.31S363.14,201,360.35,236s10.09,75,9.76,86.45-8.17,30-9,40.8,3,33.12,20,42,59,2.85,83.28,4.48,33.72-5.66,35.06,1.77-9.65,18.72-16.23,35.13-6.41,37.79-6.54,48.82,2.51,22.73.06,26.47-8.5,8.59-8.7,18c-.19,8.27,2.66,15.38,15.59,15.53,17.89.21,14.85-1.93,26.28-.15a167.78,167.78,0,0,0,24.91,2.35c6.23.19,10-1.1,10-4" transform="translate(-350.45 -92.38)"/></g><g id="g28"><path id="path30" class="cls-4" d="M454.15,431.17h-93.4a10.3,10.3,0,0,1-10.3-10.3V419.1a10.3,10.3,0,0,1,10.3-10.3h93.4a10.3,10.3,0,0,1,10.3,10.3v1.77a10.3,10.3,0,0,1-10.3,10.3" transform="translate(-350.45 -92.38)"/></g><path id="path32" class="cls-4" d="M412.9,507.82H401.81V428.64H412.9Z" transform="translate(-350.45 -92.38)"/><g id="g34"><path id="path36" class="cls-5" d="M365.43,539c.19-.59,11.28-34.05,41.92-34.05S448.5,539,448.5,539" transform="translate(-350.45 -92.38)"/></g><g id="g38"><path id="path40" class="cls-4" d="M372.82,539a7.39,7.39,0,1,1-7.39-7.4,7.39,7.39,0,0,1,7.39,7.4" transform="translate(-350.45 -92.38)"/></g><g id="g42"><path id="path44" class="cls-4" d="M414.84,539a7.39,7.39,0,1,1-7.39-7.4,7.39,7.39,0,0,1,7.39,7.4" transform="translate(-350.45 -92.38)"/></g><g id="g46"><path id="path48" class="cls-4" d="M455.89,539a7.39,7.39,0,1,1-7.39-7.4,7.39,7.39,0,0,1,7.39,7.4" transform="translate(-350.45 -92.38)"/></g><g id="g50"><path id="path52" class="cls-5" d="M407.35,504.9V539" transform="translate(-350.45 -92.38)"/></g><g id="g54"><path id="path56" class="cls-4" d="M434,298.17l.62-2.62c.41-1.72,1-4.29,1.67-7.65s1.51-7.49,2.24-12.4a145,145,0,0,0,1.55-16.89,86.17,86.17,0,0,0-.22-10A52.92,52.92,0,0,0,438,238.08,105,105,0,0,0,427.55,216c-2.25-3.77-4.81-7.53-7.43-11.54-1.3-2-2.61-4.1-3.8-6.36a32.7,32.7,0,0,1-2.94-7.36,24.55,24.55,0,0,1-.69-4.1,15.54,15.54,0,0,1,.23-4.52,8.89,8.89,0,0,1,2.51-4.6,10.25,10.25,0,0,1,4.53-2.35,47.44,47.44,0,0,1,8.37-.87,18.15,18.15,0,0,0,3.48-.51c.24-.07.47-.15.68-.23l.15-.07c-.26.14.06,0,.06,0s.14-.08.06,0l-.08,0a1.09,1.09,0,0,0,.16-.2,2.49,2.49,0,0,0,.24-.49,11.45,11.45,0,0,0,.64-3.23,37.91,37.91,0,0,0,.09-3.87,79.9,79.9,0,0,0-.72-8.16,160.62,160.62,0,0,0-3.25-16.82c-.36-1.41-.72-2.8-1.14-4.15s-.88-2.75-1.38-4.12c-1-2.75-2.14-5.49-3.4-8.18a73.89,73.89,0,0,0-9.37-15.25c-3.78-4.61-8.46-8.64-14-10.61a22.49,22.49,0,0,0-8.71-1.28,21.65,21.65,0,0,0-2.2.2c-.8.14-1.66.23-2.4.4a33.94,33.94,0,0,0-4.44,1.18,29.47,29.47,0,0,0-14.83,11,40.3,40.3,0,0,0-6.86,18c-.22,1.64-.35,3.3-.42,5s0,3.34.1,5c.07.83.13,1.67.25,2.49l.08.63,0,.27.06.32.22,1.28a31,31,0,0,0,1.36,4.74,35.81,35.81,0,0,0,4.82,8.8,65.88,65.88,0,0,0,6.83,7.72c1.24,1.24,2.52,2.46,3.78,3.84a13,13,0,0,1,1.79,2.44,6.08,6.08,0,0,1,.35.8l.22.63c.15.42.3.87.43,1.3a23.38,23.38,0,0,1,1.2,5.55,14,14,0,0,1-.87,5.88,27.77,27.77,0,0,1-2.61,5c-1,1.56-2.05,3-3.12,4.51a57.73,57.73,0,0,0-5.67,8.86,49,49,0,0,0-3.74,9.78,86.14,86.14,0,0,0-2.08,10.42c-.45,3.54-.77,7.12-1,10.71-.1,1.79-.23,3.62-.29,5.38l-.1,2.73c0,.9,0,1.77,0,2.66,0,3.55.07,7.15.29,10.71s.56,7.14,1,10.7c.21,1.78.48,3.55.74,5.33s.52,3.56.8,5.34c.56,3.57,1.26,7.12,1.8,10.82l.42,2.68c.15.83.3,1.67.47,2.54q.51,2.58,1.13,5.19c.83,3.48,1.56,7,2.09,10.71s.9,7.43,1.21,11.22a87.23,87.23,0,0,1,.28,11.58,33.43,33.43,0,0,1-.9,5.9c-.14.48-.26,1-.41,1.46l-.47,1.42-.92,2.56c-1.2,3.39-2.36,6.8-3.37,10.19a92.43,92.43,0,0,0-2.48,10.21c-.29,1.7-.47,3.4-.61,5.09a44.34,44.34,0,0,0-.06,5,31.94,31.94,0,0,0,1.87,9.52,29.1,29.1,0,0,0,2,4.36,32.25,32.25,0,0,0,2.66,4c.51.63,1,1.27,1.54,1.88l.81.91.86.88c.55.6,1.17,1.15,1.76,1.72l.23.21c.05.05.2.2.17.16l.5.44c.19.17.31.25.44.36l.41.32a28.92,28.92,0,0,0,8.22,4.22,73.36,73.36,0,0,0,19.44,3.21c6.72.33,13.52.15,20.32-.07l10.22-.3c3.42-.06,6.84-.11,10.28-.07l5,.1,4.94,0c3.3,0,6.59,0,9.87-.09,6.58-.11,13.1-.32,19.69-.29a78.52,78.52,0,0,1,10.2.58A22.28,22.28,0,0,1,498,406a12.8,12.8,0,0,1,1.68.6,7.82,7.82,0,0,1,2.06,1.32,6,6,0,0,1,1.13,1.34,6.17,6.17,0,0,1,.41.79,7.54,7.54,0,0,1,.28.81,6.86,6.86,0,0,1,.17,2.7,11.92,11.92,0,0,1-1,3.35,35.18,35.18,0,0,1-2.52,4.65c-.86,1.4-1.74,2.72-2.61,4-1.75,2.6-3.46,5.11-5.08,7.63a84.63,84.63,0,0,0-8.09,15.28,77,77,0,0,0-4.11,16.2A130,130,0,0,0,479.06,481c-.12,5.41,0,10.73.22,15.95s.5,10.35.55,15.45a46.77,46.77,0,0,1-.47,7.77,14,14,0,0,1-.5,2.06,8.18,8.18,0,0,1-1,2.17l-.36.47-.28.35-.57.69c-.4.47-.68.9-1,1.34a26.89,26.89,0,0,0-4.78,11.85,27.93,27.93,0,0,0-.15,6.19c.05.52.09,1,.17,1.5a12,12,0,0,0,.31,1.32,6.4,6.4,0,0,0,1.21,2.26,9.58,9.58,0,0,0,4.52,2.72,28.61,28.61,0,0,0,5.53,1.07,77.17,77.17,0,0,0,10.92.19c3.5-.19,6.93-.35,10.15-.3a96.84,96.84,0,0,1,17.09,1.74A91.77,91.77,0,0,0,533,557.67a38.43,38.43,0,0,0,7.78-.4c.88-.12,1.54-.25,2-.33l.67-.13-.66.16c-.44.11-1.1.26-2,.43a39.66,39.66,0,0,1-7.82.77,49.4,49.4,0,0,1-5.76-.38c-2.11-.24-4.38-.6-6.84-.94a94.16,94.16,0,0,0-16.91-1c-3.17.08-6.47.38-10,.72a77.36,77.36,0,0,1-11.29.27,31.65,31.65,0,0,1-6.13-1,16.94,16.94,0,0,1-3.14-1.22,10.49,10.49,0,0,1-2.9-2.22,9.66,9.66,0,0,1-1.92-3.27,13.24,13.24,0,0,1-.49-1.8c-.12-.56-.19-1.14-.27-1.7a31.27,31.27,0,0,1-.07-7,30.75,30.75,0,0,1,5-13.76c.36-.54.73-1.12,1.09-1.56l.54-.72.27-.35.12-.17.05-.08a7.07,7.07,0,0,0,.74-2.54,43.22,43.22,0,0,0,.18-7c-.45-9.81-1.75-20.38-1.76-31.52a135.34,135.34,0,0,1,.9-17.13,83.3,83.3,0,0,1,4-17.63,91.06,91.06,0,0,1,8.26-16.74c1.61-2.66,3.29-5.28,4.94-7.88.82-1.3,1.62-2.59,2.38-3.88a29.1,29.1,0,0,0,1.9-3.71,4.81,4.81,0,0,0,.38-1.31c0-.08,0-.12,0,.17,0,.1.15.37.06.18s.1.22.1.2a1.88,1.88,0,0,0,.27.33c.12.1.06,0-.09,0a4.32,4.32,0,0,0-.63-.2,14.09,14.09,0,0,0-1.87-.33,72.52,72.52,0,0,0-9.09-.26c-6.33.14-12.86.54-19.48.8l-5,.14c-1.67,0-3.35,0-5,0s-3.38-.12-5.07-.19l-5.05-.27c-3.32-.19-6.69-.31-10.08-.41l-5.11-.06-5.15,0c-6.88.09-13.87.15-20.94-.34a79.18,79.18,0,0,1-21.28-4,35.22,35.22,0,0,1-9.95-5.44c-.37-.3-.8-.66-1.13-.95l-.49-.45-.53-.52c-.66-.65-1.34-1.28-2-2l-1-1L366.9,397c-.62-.7-1.17-1.47-1.75-2.22a37.07,37.07,0,0,1-7.37-21.42,54,54,0,0,1,.17-5.7c.19-1.89.42-3.76.77-5.6a98,98,0,0,1,2.67-10.84c1.08-3.54,2.27-7,3.52-10.46l.93-2.57.39-1.17c.12-.38.22-.78.33-1.17a27.48,27.48,0,0,0,.76-4.9,49.84,49.84,0,0,0-.53-10.29c-.52-3.49-1.27-7-2.05-10.54s-1.64-7.11-2.4-10.74c-.37-1.81-.72-3.64-1-5.48-.16-.92-.3-1.86-.44-2.8l-.35-2.74c-.93-7.19-2-14.54-2.48-21.91-.27-3.69-.44-7.39-.46-11.08,0-1.85,0-3.7,0-5.54s.11-3.68.24-5.54c.06-.92.11-1.86.18-2.77l.24-2.72c.15-1.86.38-3.65.57-5.48.43-3.64.93-7.27,1.57-10.89,1.26-7.21,3.15-14.49,6.66-21.07a71,71,0,0,1,6-9.22c1.05-1.43,2.07-2.87,3-4.33a23.61,23.61,0,0,0,2.31-4.45,10.72,10.72,0,0,0,.68-4.57A21,21,0,0,0,378,174l-.41-1.22-.22-.62a3,3,0,0,0-.17-.39,10.07,10.07,0,0,0-1.35-1.78c-1.11-1.22-2.41-2.44-3.67-3.69a66.75,66.75,0,0,1-7.21-8,39.42,39.42,0,0,1-5.32-9.56,38.21,38.21,0,0,1-1.58-5.3l-.25-1.28-.06-.32-.06-.37-.1-.67c-.14-.89-.23-1.79-.32-2.68a53.55,53.55,0,0,1-.2-5.37c0-1.79.14-3.57.35-5.34a48.27,48.27,0,0,1,2.38-10.4,43.42,43.42,0,0,1,2.08-4.92,39.61,39.61,0,0,1,2.73-4.61,33.6,33.6,0,0,1,16.7-12.8,38.38,38.38,0,0,1,5.1-1.45c.87-.2,1.63-.29,2.45-.44a25.8,25.8,0,0,1,2.69-.31,27.55,27.55,0,0,1,10.52,1.36,32.18,32.18,0,0,1,9.14,4.91,46.44,46.44,0,0,1,7.26,6.94,74.46,74.46,0,0,1,10.22,16.27q2,4.26,3.62,8.6c.54,1.45,1,2.9,1.5,4.38s.86,3,1.22,4.44a165.14,165.14,0,0,1,3.35,17.41,84.71,84.71,0,0,1,.75,8.73A35.69,35.69,0,0,1,439,170a16.1,16.1,0,0,1-1.11,4.82,6.93,6.93,0,0,1-1.91,2.65c-.12.1-.33.24-.49.35l-.37.22-.4.19-.32.14c-.43.16-.84.29-1.25.4a22.85,22.85,0,0,1-4.53.61,45.3,45.3,0,0,0-7.48.58,5.48,5.48,0,0,0-2.4,1.12,4,4,0,0,0-1.14,2.09,11,11,0,0,0-.2,3.08,19.48,19.48,0,0,0,.51,3.35c1,4.4,3.46,8.5,5.92,12.47s5,7.87,7.29,11.8a106.76,106.76,0,0,1,9.93,23.36,54.89,54.89,0,0,1,1.62,11.28,86.52,86.52,0,0,1-.16,10.26,135.76,135.76,0,0,1-2.52,17c-1,4.89-2.06,9-2.95,12.32s-1.69,5.83-2.22,7.52-.81,2.57-.81,2.57" transform="translate(-350.45 -92.38)"/></g><g id="g58"><path id="path60" class="cls-4" d="M543.91,552.55s0-.08-.07-.23a2.65,2.65,0,0,0-.27-.54,6,6,0,0,0-1.87-1.64,50.48,50.48,0,0,0-9.2-3.81l-14.91-4.9c-2.89-.95-6-2-9.23-3.3a34.7,34.7,0,0,1-9.76-5.7,16.82,16.82,0,0,1-4-5.1A15,15,0,0,1,493,520.6a18.92,18.92,0,0,1,.31-3.45c.1-.56.22-1.12.36-1.67l.23-.83.21-.75c.29-1,.58-2,.87-3l1-3.09c2.61-8.25,5.81-16.8,9.48-25.46.91-2.17,1.86-4.34,2.82-6.53s2-4.36,3-6.55q3-6.57,6.23-13.22c2.14-4.43,4.23-8.87,6.55-13.37s4.71-8.87,7.17-13.22,4.95-8.65,7.21-12.94c1.12-2.15,2.18-4.29,3.07-6.42a29.89,29.89,0,0,0,2-6.3,14.44,14.44,0,0,0,.25-3,10.36,10.36,0,0,0-.39-2.74,4.09,4.09,0,0,0-.21-.65l-.11-.32L543,397c.07.15,0,0,0,0l0-.11-.18-.41-.09-.21-.08-.15c-.1-.19-.17-.35-.3-.58a19.55,19.55,0,0,0-1.67-2.55,35.31,35.31,0,0,0-4.47-4.71,66.49,66.49,0,0,0-5.23-4.18,172.8,172.8,0,0,0-22.73-13.28c-7.58-3.78-14.91-7.13-21.71-10.15s-13.08-5.73-18.66-8.12S457.31,348,453.4,346c-2-1-3.7-1.87-5.2-2.68s-2.74-1.55-3.75-2.15-1.76-1.08-2.27-1.42l-.77-.5s1.14.53,3.27,1.46,5.32,2.2,9.41,3.67c2,.73,4.32,1.51,6.8,2.34l8.08,2.64c5.77,1.92,12.27,4.15,19.31,6.73s14.62,5.58,22.5,9.16c3.94,1.78,8,3.71,12,5.88a118.68,118.68,0,0,1,12.09,7.32,51.76,51.76,0,0,1,11.27,10.18,25.46,25.46,0,0,1,2.3,3.47c.18.3.36.69.53,1l.13.26.09.21.18.41.13.31.1.27.19.53a10.33,10.33,0,0,1,.33,1.08,19.5,19.5,0,0,1,.24,8.81,36.57,36.57,0,0,1-2.45,7.75c-1,2.42-2.18,4.71-3.37,7-2.38,4.48-4.91,8.78-7.37,13.1s-4.86,8.62-7.18,12.94-4.49,8.75-6.69,13.11c-4.39,8.74-8.57,17.4-12.44,25.82s-7.24,16.7-10,24.7l-1,3c-.33,1-.67,2-1,3l-.25.73-.21.67c-.13.44-.25.88-.34,1.32a14,14,0,0,0-.35,2.6,10.48,10.48,0,0,0,.87,4.78,12.59,12.59,0,0,0,2.87,3.94,33,33,0,0,0,8.45,5.42c3,1.42,6,2.59,8.8,3.69,5.69,2.18,10.53,4.3,14.55,6a46.48,46.48,0,0,1,9,4.85,6.34,6.34,0,0,1,1.88,2.08,3.44,3.44,0,0,1,.25.72,1.73,1.73,0,0,0,0,.23Z" transform="translate(-350.45 -92.38)"/></g><g id="g62"><path id="path64" class="cls-4" d="M499.24,507.83l.06.71c.05.45.11,1.1.23,1.94a27.45,27.45,0,0,0,.59,3,30.52,30.52,0,0,0,1.13,3.72,28.74,28.74,0,0,0,2,4.1,26,26,0,0,0,2.91,4.09A26.4,26.4,0,0,0,510,529a28.47,28.47,0,0,0,4.74,2.93c1.69.8,3.46,1.55,5.25,2.21s3.59,1.26,5.34,1.83c3.51,1.14,6.86,2.13,9.66,3.22a37.6,37.6,0,0,1,3.75,1.69,22.51,22.51,0,0,1,2.68,1.72A17.88,17.88,0,0,1,543,544c.31.34.49.52.49.52l-.6-.39a18.29,18.29,0,0,0-1.73-1,22.55,22.55,0,0,0-2.8-1.26,34.78,34.78,0,0,0-3.76-1.29c-2.78-.9-6.14-1.69-9.74-2.63-1.8-.47-3.66-1-5.52-1.63a46.13,46.13,0,0,1-5.57-2.22,30.13,30.13,0,0,1-5.16-3.17,26.45,26.45,0,0,1-4.24-4.07,27.22,27.22,0,0,1-5-9.08,28.89,28.89,0,0,1-1.33-7.19c-.05-.88,0-1.58,0-2.06s0-.71,0-.71Z" transform="translate(-350.45 -92.38)"/></g><g id="g66"><path id="path68" class="cls-4" d="M385.54,231.9s-.12.79-.33,2.28-.44,3.67-.72,6.45-.52,6.18-.69,10.07-.27,8.29-.2,13.08a139.4,139.4,0,0,0,1,15.38c.33,2.71.79,5.46,1.41,8.23a40.1,40.1,0,0,0,2.66,8.11c.28.65.65,1.25,1,1.87l1.22,1.88,1.29,1.77c.46.6.92,1.19,1.39,1.78a90.22,90.22,0,0,0,6.21,6.84c2.2,2.2,4.52,4.33,6.94,6.35a92.45,92.45,0,0,0,7.51,5.73c1.31.87,2.63,1.72,4,2.49s2.72,1.44,4.18,2.15l8.58,4.2c5.68,2.75,11.29,5.4,16.79,7.77a119.39,119.39,0,0,0,16.08,6,30.35,30.35,0,0,0,3.84.77c.31,0,.63.09.93.1l.94,0c.64,0,1.34,0,2,.1a18.23,18.23,0,0,1,4,.79,14.25,14.25,0,0,1,3.57,1.8,46,46,0,0,1,5.24,4.74,46.91,46.91,0,0,0,4.63,4c.37.29.78.58,1.12.83l1.15.79c.76.53,1.49.93,2.19,1.38a40.35,40.35,0,0,0,4.06,2.08,28,28,0,0,0,6,1.95,15.33,15.33,0,0,0,1.64.24l.53,0,0,1.19s-.24,0-.64,0a16.47,16.47,0,0,1-1.78-.18,28.6,28.6,0,0,1-6.42-1.81,41.46,41.46,0,0,1-4.29-2c-.74-.44-1.57-.87-2.32-1.37l-1.18-.75c-.43-.3-.82-.55-1.23-.85a50.69,50.69,0,0,1-4.92-4,49.79,49.79,0,0,0-5.11-4.4,12.77,12.77,0,0,0-6.51-2.07c-.61,0-1.21,0-1.89,0l-1.05,0c-.36,0-.71-.06-1.06-.09a34.37,34.37,0,0,1-4.17-.76,120.36,120.36,0,0,1-16.58-5.78c-5.58-2.37-11.24-5-17-7.73l-8.6-4.14c-1.42-.67-2.94-1.41-4.38-2.22s-2.83-1.68-4.2-2.57a98.8,98.8,0,0,1-14.94-12.45,94.92,94.92,0,0,1-6.4-7.1l-1.44-1.89c-.47-.65-.93-1.31-1.39-2l-1.24-2c-.39-.72-.79-1.42-1.1-2.15a42.15,42.15,0,0,1-2.76-8.75,78.25,78.25,0,0,1-1.3-8.54,144,144,0,0,1-.67-15.67c0-2.43.09-4.75.18-7s.24-4.3.4-6.26c.31-3.92.7-7.33,1.07-10.13s.74-5,1-6.48l.43-2.27Z" transform="translate(-350.45 -92.38)"/></g><g id="g70"><path id="path72" class="cls-4" d="M511.74,352.23l-1.72-.85c-1.13-.57-2.76-1.35-4.88-2.32s-4.69-2.11-7.68-3.32-6.38-2.54-10.14-3.87l-5.86-2.09c-2-.74-4.14-1.44-6.39-2.39l-.88-.41-.82-.41c-.54-.28-1.08-.56-1.61-.85-1.07-.57-2.12-1.19-3.17-1.81q-3.15-1.89-6.34-4c-4.25-2.73-8.56-5.67-12.83-8.8s-8.58-6.38-12.77-9.83c-2.08-1.73-4.14-3.51-6.15-5.37-.5-.48-1-.94-1.49-1.42l-1.45-1.42c-.93-.94-1.83-1.82-2.77-2.73-3.73-3.59-7.56-6.92-11.3-10.41-.93-.89-1.86-1.8-2.77-2.77a22.83,22.83,0,0,1-2.62-3.33,9.55,9.55,0,0,1-1.62-4.92,22.79,22.79,0,0,1,.4-4c.41-2.39.93-4.6,1.47-6.72s1.09-4.15,1.63-6.09c1.1-3.87,2.17-7.38,3.12-10.49l2.48-8c.68-2.22,1.19-4,1.53-5.18l.49-1.84,1.18.17s0,.68-.1,2-.26,3.11-.57,5.45-.76,5.16-1.28,8.38-1.21,6.84-1.95,10.76-1.57,8.19-2.1,12.51a20.11,20.11,0,0,0-.17,2.95,3.69,3.69,0,0,0,.77,1.7,31.8,31.8,0,0,0,4.55,4.75l5.63,5.08c1.91,1.75,3.85,3.55,5.76,5.41.95.92,1.94,1.89,2.86,2.82l1.37,1.39c.45.45.92.9,1.38,1.34,1.86,1.79,3.82,3.52,5.82,5.23,4,3.44,8.09,6.76,12.21,9.94s8.25,6.25,12.28,9.13c2,1.43,4,2.82,6,4.12,1,.65,2,1.28,2.94,1.89.49.29,1,.58,1.44.88l.72.41.65.36c1.93,1,4,1.83,6,2.68s3.92,1.66,5.76,2.49c3.67,1.65,7,3.25,9.94,4.75s5.4,2.92,7.42,4.12,3.6,2.2,4.64,2.89l1.6,1.06Z" transform="translate(-350.45 -92.38)"/></g><g id="g74"><path id="path76" class="cls-6" d="M382.92,193a24.67,24.67,0,0,0,4.47,2.69,4.71,4.71,0,0,0,5.43-1.87,23.13,23.13,0,0,0,3.24-7.45,5.71,5.71,0,0,0,.13-1,7,7,0,0,0-.07-1,5.35,5.35,0,0,0-.53-1.82,3.54,3.54,0,0,0-2.36-2,24.61,24.61,0,0,0-5.22-.06,7.28,7.28,0,0,0-2.56.85,5.21,5.21,0,0,0-1,.65,2.41,2.41,0,0,0-.35.37,4.4,4.4,0,0,0-.3.45c-.58,1.38-1.34,3-2.19,4.9a5,5,0,0,0,1.27,5.31" transform="translate(-350.45 -92.38)"/></g><g id="g78"><path id="path80" class="cls-6" d="M374.35,209.3a24.24,24.24,0,0,0,4.65,1.85,4.73,4.73,0,0,0,4.77-2c1-1.7,1.93-3.46,2.81-5.32a4.66,4.66,0,0,0-1.13-5.16,23.34,23.34,0,0,0-4.28-2.59,4.57,4.57,0,0,0-5.18,1.68,32.36,32.36,0,0,0-3.25,6.14,5.35,5.35,0,0,0-.06,3.09,4,4,0,0,0,1.67,2.26" transform="translate(-350.45 -92.38)"/></g><g id="g82"><path id="path84" class="cls-6" d="M370.6,227.26a22.51,22.51,0,0,0,4.77.42,4.22,4.22,0,0,0,2.39-1.05,4.51,4.51,0,0,0,1.43-2.23c.18-1,.35-1.93.51-2.83.08-.46.15-.93.21-1.39s.09-1,.17-1.37a3.92,3.92,0,0,0-.61-2.38,4.58,4.58,0,0,0-1.83-1.82,22.83,22.83,0,0,0-4.56-1.45,3.6,3.6,0,0,0-2.6.67,5.37,5.37,0,0,0-1.81,2.49,14.07,14.07,0,0,0-.42,1.67c-.12.55-.22,1.11-.32,1.66s-.18,1.12-.24,1.67-.08,1.1-.1,1.64a4.94,4.94,0,0,0,.85,2.75,3.88,3.88,0,0,0,2.16,1.55" transform="translate(-350.45 -92.38)"/></g><g id="g86"><path id="path88" class="cls-6" d="M370.09,245a21.91,21.91,0,0,0,4.58,0,4.26,4.26,0,0,0,3.28-3.58,41,41,0,0,0,.13-5.76A4.23,4.23,0,0,0,375,232a21.79,21.79,0,0,0-4.56-.27,4.23,4.23,0,0,0-3.46,3.56,33.4,33.4,0,0,0-.13,6.08,4.22,4.22,0,0,0,3.29,3.7" transform="translate(-350.45 -92.38)"/></g><g id="g90"><path id="path92" class="cls-6" d="M370.83,261.55a20.36,20.36,0,0,0,4.34-.29,4.08,4.08,0,0,0,2.93-3.61,44.25,44.25,0,0,0-.25-5.52,4.05,4.05,0,0,0-3.25-3.33,20.41,20.41,0,0,0-4.35.1,4,4,0,0,0-3,3.6,31.46,31.46,0,0,0,.27,5.74,4,4,0,0,0,3.34,3.31" transform="translate(-350.45 -92.38)"/></g><g id="g94"><path id="path96" class="cls-6" d="M372.55,277.66a19.61,19.61,0,0,0,4.1-.54,3.82,3.82,0,0,0,2.55-3.59,39.85,39.85,0,0,0-.56-5.22,3.87,3.87,0,0,0-3.26-3,19.76,19.76,0,0,0-4.13.35,3.77,3.77,0,0,0-2.66,3.59,30.17,30.17,0,0,0,.58,5.44,3.82,3.82,0,0,0,3.38,2.94" transform="translate(-350.45 -92.38)"/></g><g id="g98"><path id="path100" class="cls-6" d="M375.2,292.3a18.33,18.33,0,0,0,3.83-.86,3.68,3.68,0,0,0,2.14-3.56,38.28,38.28,0,0,0-.89-4.85,3.59,3.59,0,0,0-3.27-2.58,18.1,18.1,0,0,0-3.87.58,3.65,3.65,0,0,0-2.31,3.58,29.07,29.07,0,0,0,.95,5.14,3.58,3.58,0,0,0,3.42,2.55" transform="translate(-350.45 -92.38)"/></g><g id="g102"><path id="path104" class="cls-6" d="M379.18,306.56a17.21,17.21,0,0,0,3.59-.92,3.41,3.41,0,0,0,1.78-3.63,34.82,34.82,0,0,0-1.36-4.64,3.47,3.47,0,0,0-3.35-2,17.88,17.88,0,0,0-3.59.93,3.42,3.42,0,0,0-1.74,3.66,27.55,27.55,0,0,0,1.34,4.57,3.45,3.45,0,0,0,3.33,2.06" transform="translate(-350.45 -92.38)"/></g><g id="g106"><path id="path108" class="cls-6" d="M381.47,319.46a16.32,16.32,0,0,0,3.49-.18,2.8,2.8,0,0,0,1.61-1.11,3.61,3.61,0,0,0,.65-2c0-.4,0-.81-.06-1.22s-.1-.8-.17-1.19c-.12-.8-.28-1.59-.46-2.37a3.25,3.25,0,0,0-3-2.32,15.86,15.86,0,0,0-3.41.75,3.17,3.17,0,0,0-1.92,3.11q.08,1.07.24,2.1c.06.34.12.69.19,1s.1.69.17,1a3.12,3.12,0,0,0,1,1.61,3,3,0,0,0,1.7.78" transform="translate(-350.45 -92.38)"/></g><g id="g110"><path id="path112" class="cls-6" d="M379.78,332.83a16,16,0,0,0,3.09,1.1,3,3,0,0,0,3.1-2c.26-.75.45-1.52.64-2.3a23.44,23.44,0,0,0,.31-2.36,3,3,0,0,0-2.06-3,16.24,16.24,0,0,0-3.27-.2A3.08,3.08,0,0,0,379,326.2c-.16.6-.27,1.21-.39,1.82s-.25,1.21-.35,1.82a3.13,3.13,0,0,0,1.52,3" transform="translate(-350.45 -92.38)"/></g><g id="g114"><path id="path116" class="cls-6" d="M374.46,344.66a14,14,0,0,0,2.83,1.17,2.9,2.9,0,0,0,2.95-1.19c.3-.52.57-1,.9-1.66s.58-1.19.84-1.83a2.81,2.81,0,0,0-.89-3.21,14.32,14.32,0,0,0-2.78-1.29,2.82,2.82,0,0,0-3,1.16c-.32.54-.65,1.12-.95,1.7a20,20,0,0,0-.85,1.9,2.78,2.78,0,0,0,1,3.25" transform="translate(-350.45 -92.38)"/></g><g id="g118"><path id="path120" class="cls-6" d="M370.91,357.32a13.19,13.19,0,0,0,2.79.51,2.65,2.65,0,0,0,2.45-1.73c.35-1.11.6-2.25.84-3.38a2.67,2.67,0,0,0-1.35-2.67,13.36,13.36,0,0,0-2.71-.86,2.59,2.59,0,0,0-2.63,1.67,19.32,19.32,0,0,0-.93,3.76,2.61,2.61,0,0,0,1.54,2.7" transform="translate(-350.45 -92.38)"/></g><g id="g122"><path id="path124" class="cls-6" d="M369.88,369.13a12.84,12.84,0,0,0,2.63,0,2.48,2.48,0,0,0,1.94-2c.07-.53.12-1.07.14-1.61s.07-1.08.08-1.62a2.48,2.48,0,0,0-1.67-2.21,12.68,12.68,0,0,0-2.6-.33,2.41,2.41,0,0,0-2.12,1.95c-.1.58-.17,1.18-.22,1.77s0,1.19,0,1.79a2.41,2.41,0,0,0,1.84,2.21" transform="translate(-350.45 -92.38)"/></g><g id="g126"><path id="path128" class="cls-6" d="M371.17,381.2a11.23,11.23,0,0,0,2.35-.52,2.26,2.26,0,0,0,1.36-2.14,25.66,25.66,0,0,0-.43-2.9,2.23,2.23,0,0,0-1.89-1.68,11.47,11.47,0,0,0-2.41.19,2.25,2.25,0,0,0-1.55,2.15,17.32,17.32,0,0,0,.48,3.27,2.23,2.23,0,0,0,2.09,1.63" transform="translate(-350.45 -92.38)"/></g></g></g></g></g></g></g></g></svg>