<?xml version="1.0" encoding="UTF-8" standalone="no"?>
<svg
   xmlns:dc="http://purl.org/dc/elements/1.1/"
   xmlns:cc="http://creativecommons.org/ns#"
   xmlns:rdf="http://www.w3.org/1999/02/22-rdf-syntax-ns#"
   xmlns:svg="http://www.w3.org/2000/svg"
   xmlns="http://www.w3.org/2000/svg"
   xmlns:sodipodi="http://sodipodi.sourceforge.net/DTD/sodipodi-0.dtd"
   xmlns:inkscape="http://www.inkscape.org/namespaces/inkscape"
   sodipodi:docname="occhi.svg"
   inkscape:version="1.0.2-2 (e86c870879, 2021-01-15)"
   inkscape:export-ydpi="73.959999"
   inkscape:export-xdpi="73.959999"
   inkscape:export-filename="C:\Users\simone\Documents\occhi.png"
   id="svg4790"
   version="1.1"
   viewBox="0 0 141.188 94.000931"
   height="94.000931mm"
   width="141.188mm">
  <defs
     id="defs4784" />
  <sodipodi:namedview
     id="base"
     pagecolor="#ffffff"
     bordercolor="#666666"
     borderopacity="1.0"
     inkscape:pageopacity="0.0"
     inkscape:pageshadow="2"
     inkscape:zoom="0.7"
     inkscape:cx="73.71201"
     inkscape:cy="61.141741"
     inkscape:document-units="mm"
     inkscape:current-layer="layer1"
     showgrid="true"
     showguides="false"
     inkscape:window-width="1920"
     inkscape:window-height="986"
     inkscape:window-x="-11"
     inkscape:window-y="-11"
     inkscape:window-maximized="1"
     inkscape:document-rotation="0"
     fit-margin-top="0"
     fit-margin-left="0"
     fit-margin-right="0"
     fit-margin-bottom="0">
    <inkscape:grid
       id="grid4796"
       type="xygrid"
       originx="-45.176288"
       originy="-165.76187" />
  </sodipodi:namedview>
  <metadata
     id="metadata4787">
    <rdf:RDF>
      <cc:Work
         rdf:about="">
        <dc:format>image/svg+xml</dc:format>
        <dc:type
           rdf:resource="http://purl.org/dc/dcmitype/StillImage" />
        <dc:title></dc:title>
      </cc:Work>
    </rdf:RDF>
  </metadata>
  <g
     inkscape:label="Layer 1"
     inkscape:groupmode="layer"
     id="layer1"
     transform="translate(-45.17629,-165.76187)">
    <path
       id="path5931-0"
       d="m 122.89342,165.8128 c 6.2128,0.69658 9.27868,1.25939 13.15263,2.41445 8.93883,2.66522 17.1365,6.73719 26.36882,13.09798 0.99581,0.68608 5.37779,3.99277 5.81882,4.39095 0.1955,0.1765 1.07213,0.91018 1.94807,1.6304 3.70382,3.04538 10.20716,9.34253 11.02921,10.67952 0.47859,0.77841 0.51632,1.82822 0.0942,2.62114 -0.56124,1.05424 -7.4614,7.92768 -10.55715,10.51628 -0.52441,0.43851 -1.23591,1.04246 -1.58112,1.34215 -1.23883,1.07545 -5.40144,4.29311 -6.86682,5.30798 -0.82192,0.56923 -1.96904,1.37231 -2.54917,1.78462 -0.58012,0.4123 -2.0464,1.35118 -3.25839,2.08639 -18.26007,11.07674 -34.53348,14.31732 -51.47299,10.25001 -5.827724,-1.3993 -12.029718,-3.78548 -18.092433,-6.96101 -2.435549,-1.27569 -7.450349,-4.21775 -8.49051,-4.98118 -0.292065,-0.21436 -1.327379,-0.93222 -2.30068,-1.59525 -0.973312,-0.66302 -2.645995,-1.87649 -3.717066,-2.69659 -1.782958,-1.36519 -2.564174,-1.98991 -5.13446,-4.10595 -3.143089,-2.58759 -10.01672,-9.31204 -10.581754,-10.35208 -0.391631,-0.72086 -0.402666,-1.67014 -0.02828,-2.42973 0.271696,-0.55119 1.957511,-2.41282 4.461626,-4.92691 5.723097,-5.74592 12.865899,-11.48349 19.482825,-15.64987 2.8094,-1.76897 3.94922,-2.42201 7.915962,-4.53532 3.083594,-1.64281 9.669965,-4.29129 13.64723,-5.48776 2.50665,-0.75407 6.53392,-1.60183 9.60058,-2.02097 2.0811,-0.28443 9.65171,-0.54284 11.11081,-0.37925 z m -60.339752,34.05667 c 0.0022,0.4596 5.132595,5.29029 9.126686,8.59353 4.246217,3.51176 8.874875,6.81302 13.184361,9.40336 24.741915,12.91112 35.520705,15.63363 64.294485,2.66926 8.46882,-3.81574 16.20538,-9.52521 27.44822,-20.51927 0.7887,-1.0621 0.69214,-0.68722 -0.51286,-2.63382 -1.88474,-3.0447 -6.454,-6.77464 -7.27162,-7.50936 -6.49998,-5.84084 -15.01672,-11.42271 -24.22629,-15.44394 -7.90713,-3.45254 -16.30025,-5.77961 -24.64856,-5.84732 -9.88198,-0.0801 -20.991605,2.51507 -31.388275,7.74484 -6.423621,3.23125 -12.457401,7.64294 -18.114075,12.52699 -2.665171,2.30114 -5.788585,4.81699 -8.45055,7.44885 -0.885258,0.87524 -0.754885,2.14698 0.558478,3.56688 z"
       style="fill:#000000;stroke-width:0.176389"
       inkscape:connector-curvature="0"
       sodipodi:nodetypes="ccccsccccccccsccccccccssccccscscccsccccc" />
    <path
       style="fill:none;stroke:#000000;stroke-width:3;stroke-linecap:butt;stroke-linejoin:miter;stroke-miterlimit:4;stroke-dasharray:none;stroke-opacity:1"
       d="m 169.70471,211.74853 15.51305,18.38962"
       id="path2621"
       inkscape:connector-curvature="0"
       sodipodi:nodetypes="cc" />
    <path
       style="fill:none;stroke:#000000;stroke-width:3;stroke-linecap:butt;stroke-linejoin:miter;stroke-miterlimit:4;stroke-dasharray:none;stroke-opacity:1"
       d="m 153.40856,223.21931 13.33691,22.84953"
       id="path0712"
       inkscape:connector-curvature="0"
       sodipodi:nodetypes="cc" />
    <path
       style="fill:none;stroke:#000000;stroke-width:3;stroke-linecap:butt;stroke-linejoin:miter;stroke-miterlimit:4;stroke-dasharray:none;stroke-opacity:1"
       d="m 135.12736,231.05702 7.15191,25.47051"
       id="path8175"
       inkscape:connector-curvature="0"
       sodipodi:nodetypes="cc" />
    <path
       style="fill:none;stroke:#000000;stroke-width:3;stroke-linecap:butt;stroke-linejoin:miter;stroke-miterlimit:4;stroke-dasharray:none;stroke-opacity:1"
       d="m 115.42762,233.26587 -1.33032,26.4215"
       id="path8601"
       inkscape:connector-curvature="0"
       sodipodi:nodetypes="cc" />
    <path
       style="fill:none;stroke:#000000;stroke-width:3;stroke-linecap:butt;stroke-linejoin:miter;stroke-miterlimit:4;stroke-dasharray:none;stroke-opacity:1"
       d="m 96.076868,228.87954 -9.869584,24.54754"
       id="path0779"
       inkscape:connector-curvature="0"
       sodipodi:nodetypes="cc" />
    <path
       style="fill:none;stroke:#000000;stroke-width:3;stroke-linecap:butt;stroke-linejoin:miter;stroke-miterlimit:4;stroke-dasharray:none;stroke-opacity:1"
       d="M 78.41006,219.69527 63.334375,241.43749"
       id="path7156"
       inkscape:connector-curvature="0"
       sodipodi:nodetypes="cc" />
    <path
       style="fill:none;stroke:#000000;stroke-width:3;stroke-linecap:butt;stroke-linejoin:miter;stroke-miterlimit:4;stroke-dasharray:none;stroke-opacity:1"
       d="M 62.837182,207.24391 46.287865,225.50866"
       id="path1839"
       inkscape:connector-curvature="0"
       sodipodi:nodetypes="cc" />
    <path
       style="fill:#ff5555;stroke-width:1.42857"
       d="M 258.71201,237.32167 C 221.93784,232.7325 160.73985,205.62987 121.43623,176.52664 90.585334,153.68241 62.283438,127.05328 62.283438,120.87003 c 0,-3.40139 4.431739,-7.78236 29.285715,-28.95025 C 133.81649,55.938135 163.76756,37.833411 202.28344,24.995558 267.8555,3.1395245 321.72231,7.5793969 388.71201,40.36159 c 34.58711,16.925608 60.23913,34.594048 88.3681,60.86565 12.09004,11.29172 21.40727,23.68467 19.78163,26.31174 -1.99764,3.22822 -31.3115,29.89482 -44.8962,40.84175 -27.45436,22.12348 -48.49574,34.19564 -84.37662,48.40968 -44.21518,17.51566 -79.58901,24.18622 -108.87691,20.53126 z"
       id="path34"
       transform="matrix(0.26458333,0,0,0.26458333,45.17629,165.76187)" />
  </g>
</svg>
