<?xml version="1.0" encoding="UTF-8" standalone="no"?>
<svg
   xmlns:dc="http://purl.org/dc/elements/1.1/"
   xmlns:cc="http://creativecommons.org/ns#"
   xmlns:rdf="http://www.w3.org/1999/02/22-rdf-syntax-ns#"
   xmlns:svg="http://www.w3.org/2000/svg"
   xmlns="http://www.w3.org/2000/svg"
   xmlns:sodipodi="http://sodipodi.sourceforge.net/DTD/sodipodi-0.dtd"
   xmlns:inkscape="http://www.inkscape.org/namespaces/inkscape"
   sodipodi:docname="aperto.svg"
   inkscape:version="1.0.2-2 (e86c870879, 2021-01-15)"
   inkscape:export-ydpi="73.959999"
   inkscape:export-xdpi="73.959999"
   inkscape:export-filename="C:\Users\simone\Documents\occhi.png"
   id="svg4790"
   version="1.1"
   viewBox="0 0 145.91211 119.40977"
   height="119.40977mm"
   width="145.91211mm">
  <defs
     id="defs4784" />
  <sodipodi:namedview
     id="base"
     pagecolor="#ffffff"
     bordercolor="#666666"
     borderopacity="1.0"
     inkscape:pageopacity="0.0"
     inkscape:pageshadow="2"
     inkscape:zoom="0.49497475"
     inkscape:cx="468.01958"
     inkscape:cy="200.64474"
     inkscape:document-units="mm"
     inkscape:current-layer="layer1"
     showgrid="true"
     showguides="false"
     inkscape:window-width="1920"
     inkscape:window-height="986"
     inkscape:window-x="-11"
     inkscape:window-y="-11"
     inkscape:window-maximized="1"
     inkscape:document-rotation="0"
     fit-margin-top="0"
     fit-margin-left="0"
     fit-margin-right="0"
     fit-margin-bottom="0">
    <inkscape:grid
       id="grid4796"
       type="xygrid"
       originx="-25.724928"
       originy="-33.392304" />
  </sodipodi:namedview>
  <metadata
     id="metadata4787">
    <rdf:RDF>
      <cc:Work
         rdf:about="">
        <dc:format>image/svg+xml</dc:format>
        <dc:type
           rdf:resource="http://purl.org/dc/dcmitype/StillImage" />
        <dc:title></dc:title>
      </cc:Work>
    </rdf:RDF>
  </metadata>
  <g
     inkscape:label="Layer 1"
     inkscape:groupmode="layer"
     id="layer1"
     transform="translate(-25.724927,-33.392303)">
    <path
       style="fill:#000000;stroke-width:0.176389"
       d="m 91.121187,127.46545 c -6.20941,-0.72619 -9.27257,-1.3036 -13.140971,-2.47712 -8.926023,-2.70779 -17.104188,-6.81879 -26.306088,-13.22352 -0.992528,-0.69082 -5.358695,-4.01836 -5.797824,-4.41863 -0.194652,-0.17743 -1.067777,-0.91528 -1.940278,-1.63967 -3.689262,-3.063 -10.162513,-9.39108 -10.978173,-10.73197 -0.474881,-0.78068 -0.507606,-1.83066 -0.08171,-2.62156 0.566265,-1.05155 7.499101,-7.89203 10.607158,-10.46584 0.526495,-0.436 1.24087,-1.03656 1.5875,-1.3346 1.243946,-1.06953 5.421842,-4.26731 6.892047,-5.27519 0.824618,-0.5653 1.975556,-1.3629 2.557639,-1.77244 0.582084,-0.40954 2.052818,-1.341421 3.2683,-2.07084 18.312663,-10.989578 34.601335,-14.152557 51.521263,-10.004539 5.82099,1.427052 12.01154,3.842781 18.05905,7.047164 2.42944,1.287281 7.43016,4.253215 8.46667,5.021595 0.29104,0.21575 1.32292,0.93854 2.29305,1.6062 0.97014,0.66765 2.63702,1.88908 3.70417,2.71428 1.77643,1.37367 2.55466,2.00211 5.11483,4.13037 3.13072,2.60255 9.97222,9.35968 10.53229,10.40241 0.38819,0.72271 0.3947,1.67204 0.0167,2.42983 -0.27432,0.54989 -1.96899,2.40346 -4.48506,4.90559 -5.75042,5.71858 -12.92049,11.42203 -19.5572,15.55683 -2.81781,1.75555 -3.96073,2.40315 -7.9375,4.49753 -3.09139,1.6281 -9.69031,4.24515 -13.67324,5.42265 -2.51021,0.74211 -6.54148,1.57067 -9.61009,1.97518 -2.08243,0.27451 -9.654198,0.49683 -11.112498,0.32629 z m 8.20208,-5.28005 c 3.581723,-0.21107 10.200553,-1.59226 13.670143,-2.85263 0.92164,-0.33479 2.3107,-0.83392 3.08681,-1.10918 2.51407,-0.89163 7.21245,-3.11982 11.02431,-5.22822 5.21795,-2.88614 12.09234,-7.82627 17.72633,-12.73865 1.41329,-1.23227 6.79173,-6.42716 6.79173,-6.55994 0,-0.4596 -5.10732,-5.31469 -9.08562,-8.63693 -4.22943,-3.53196 -8.8423,-6.85525 -13.13939,-9.4661 -2.4703,-1.50093 -5.45037,-3.08975 -5.66145,-3.0184 -0.0853,0.0288 -0.0339,0.28555 0.11406,0.5705 0.80966,1.55901 1.98911,5.73077 2.37191,8.38954 0.29002,2.01433 0.2561,6.75256 -0.0631,8.81945 -1.04921,6.7933 -4.10548,12.80995 -8.96189,17.64266 -3.79136,3.77285 -8.05345,6.27957 -13.46409,7.91883 -2.53646,0.76847 -5.208513,1.12671 -8.466663,1.13513 -3.97899,0.0103 -7.07223,-0.51487 -10.81825,-1.83666 -2.49719,-0.88113 -6.515605,-3.09924 -8.520962,-4.70345 -2.667818,-2.13415 -5.654643,-5.45401 -7.333671,-8.15139 -1.456563,-2.33999 -3.16124,-6.40029 -3.851833,-9.17452 -0.799462,-3.21159 -1.072035,-8.43467 -0.607972,-11.65005 0.379755,-2.63123 1.669061,-7.14744 2.46513,-8.63491 0.287987,-0.53811 0.03167,-0.46423 -1.888312,0.54427 -3.351673,1.7605 -7.986397,4.75461 -12.218441,7.89329 -1.751792,1.29922 -3.772874,2.89513 -4.056945,3.20351 -0.04851,0.0527 -0.564444,0.47747 -1.146528,0.94402 -2.087259,1.673 -8.061265,7.31073 -8.407287,7.93405 -0.158592,0.28568 0.149325,0.65599 2.259755,2.71763 5.94943,5.81189 11.948767,10.56795 18.671144,14.80181 2.120017,1.33522 2.988335,1.82831 6.179639,3.50918 8.627722,4.54425 18.015713,7.3713 25.968403,7.81996 2.53875,0.14323 3.76075,0.12948 7.36307,-0.0828 z m -1.00728,-10.49844 c 2.890753,-0.31615 6.005183,-1.26422 8.768403,-2.66922 4.66432,-2.37164 9.02934,-6.74761 11.35478,-11.38328 4.26658,-8.50527 3.69144,-18.38315 -1.53304,-26.329623 -1.57533,-2.396085 -1.99921,-2.757123 -4.04676,-3.446818 -11.72059,-3.947939 -23.831463,-3.944355 -35.408321,0.01048 -1.992567,0.680691 -2.424063,1.050795 -4.006351,3.436337 -2.034062,3.066654 -3.457327,6.746374 -4.118769,10.648664 -0.356196,2.10145 -0.275856,6.2299 0.167785,8.62195 1.646317,8.87674 8.146935,16.56286 16.662893,19.70168 3.82414,1.40951 7.87146,1.87878 12.15938,1.40983 z M 92.604167,98.5625 c -3.59949,-0.6536 -7.1497,-3.38159 -9.00784,-6.92164 -1.91855,-3.65517 -1.93863,-7.84427 -0.0557,-11.6126 1.65311,-3.30832 4.62146,-5.79247 8.16031,-6.82918 1.80131,-0.52769 5.15302,-0.52769 6.95433,0 3.598503,1.05419 6.589083,3.58633 8.247133,6.9829 0.81356,1.66659 1.15142,3.01313 1.27571,5.08434 0.12941,2.15656 -0.23014,3.8593 -1.27934,6.05866 -2.58987,5.42892 -8.308733,8.32444 -14.294633,7.23752 z"
       id="path5931"
       inkscape:connector-curvature="0" />
    <path
       style="fill:none;stroke:#000000;stroke-width:3.5;stroke-linecap:butt;stroke-linejoin:miter;stroke-miterlimit:4;stroke-dasharray:none;stroke-opacity:1"
       d="m 71.4375,119.72916 -13.229167,23.8125"
       id="path5664-3"
       inkscape:connector-curvature="0"
       sodipodi:nodetypes="cc" />
    <path
       style="fill:none;stroke:#000000;stroke-width:4.99994;stroke-linecap:butt;stroke-linejoin:miter;stroke-miterlimit:4;stroke-dasharray:none;stroke-opacity:1"
       d="M 44.664344,81.20314 27.638514,60.95101"
       id="path2621-3"
       inkscape:connector-curvature="0"
       sodipodi:nodetypes="cc" />
    <path
       style="fill:none;stroke:#000000;stroke-width:4.99975;stroke-linecap:butt;stroke-linejoin:miter;stroke-miterlimit:4;stroke-dasharray:none;stroke-opacity:1"
       d="M 61.01498,69.81017 47.787138,46.89733"
       id="path0712-8"
       inkscape:connector-curvature="0"
       sodipodi:nodetypes="cc" />
    <path
       style="fill:none;stroke:#000000;stroke-width:4.99948;stroke-linecap:butt;stroke-linejoin:miter;stroke-miterlimit:4;stroke-dasharray:none;stroke-opacity:1"
       d="M 79.333339,62.05969 72.302911,36.55537"
       id="path8175-8"
       inkscape:connector-curvature="0"
       sodipodi:nodetypes="cc" />
    <path
       style="fill:none;stroke:#000000;stroke-width:4.99936;stroke-linecap:butt;stroke-linejoin:miter;stroke-miterlimit:4;stroke-dasharray:none;stroke-opacity:1"
       d="M 99.043384,59.94476 100.49962,33.5299"
       id="path8601-1"
       inkscape:connector-curvature="0"
       sodipodi:nodetypes="cc" />
    <path
       style="fill:none;stroke:#000000;stroke-width:4.99981;stroke-linecap:butt;stroke-linejoin:miter;stroke-miterlimit:4;stroke-dasharray:none;stroke-opacity:1"
       d="m 118.373,64.42328 9.98648,-24.50022"
       id="path0779-5"
       inkscape:connector-curvature="0"
       sodipodi:nodetypes="cc" />
    <path
       style="fill:none;stroke:#000000;stroke-width:4.99985;stroke-linecap:butt;stroke-linejoin:miter;stroke-miterlimit:4;stroke-dasharray:none;stroke-opacity:1"
       d="M 135.99583,73.69165 151.17498,52.02154"
       id="path7156-8"
       inkscape:connector-curvature="0"
       sodipodi:nodetypes="cc" />
    <path
       style="fill:none;stroke:#000000;stroke-width:4.99983;stroke-linecap:butt;stroke-linejoin:miter;stroke-miterlimit:4;stroke-dasharray:none;stroke-opacity:1"
       d="M 151.50918,86.2171 169.83382,67.13302"
       id="path1839-4"
       inkscape:connector-curvature="0"
       sodipodi:nodetypes="cc" />
    <path
       style="fill:none;stroke:#000000;stroke-width:3.5;stroke-linecap:butt;stroke-linejoin:miter;stroke-miterlimit:4;stroke-dasharray:none;stroke-opacity:1"
       d="m 145.52083,103.85416 15.875,18.52083"
       id="path7945-3"
       inkscape:connector-curvature="0"
       sodipodi:nodetypes="cc" />
    <path
       style="fill:none;stroke:#000000;stroke-width:3.5;stroke-linecap:butt;stroke-linejoin:miter;stroke-miterlimit:4;stroke-dasharray:none;stroke-opacity:1"
       d="m 124.35417,117.08332 13.22916,26.45834"
       id="path9918-0"
       inkscape:connector-curvature="0"
       sodipodi:nodetypes="cc" />
    <path
       style="fill:none;stroke:#000000;stroke-width:3.5;stroke-linecap:butt;stroke-linejoin:miter;stroke-miterlimit:4;stroke-dasharray:none;stroke-opacity:1"
       d="m 96.572917,125.02082 v 27.78125"
       id="path3087-8"
       inkscape:connector-curvature="0"
       sodipodi:nodetypes="cc" />
    <path
       sodipodi:nodetypes="cc"
       inkscape:connector-curvature="0"
       id="path7632-2"
       d="M 50.270833,109.14582 35.71875,127.66666"
       style="fill:none;stroke:#000000;stroke-width:3.5;stroke-linecap:butt;stroke-linejoin:miter;stroke-miterlimit:4;stroke-dasharray:none;stroke-opacity:1" />
    <path
       style="fill:#ffffff;stroke-width:2.02031"
       d="M 240.14617,333.93973 C 182.25546,325.97554 117.30073,291.92298 68.167659,243.77987 L 50.826583,226.78819 65.978871,212.57558 c 26.110863,-24.49158 80.596019,-63.32809 84.029019,-59.89509 0.58461,0.58461 -0.53839,6.38819 -2.49556,12.89684 -4.7803,15.89714 -4.72133,47.8963 0.11862,64.36183 11.78085,40.07851 42.70664,71.02553 83.00278,83.05977 14.32618,4.27844 47.60504,4.78365 61.61931,0.93545 41.22214,-11.31924 75.16446,-45.50567 85.69088,-86.30714 4.26973,-16.55002 3.9383,-44.50205 -0.73919,-62.33784 -2.03987,-7.77817 -3.55479,-14.3173 -3.36652,-14.5314 0.18829,-0.2141 8.2025,4.4639 17.80943,10.39555 23.41475,14.45708 47.75161,33.17386 66.85681,51.41762 l 15.73868,15.02904 -8.66761,8.99866 c -22.24742,23.09715 -67.43379,55.59812 -99.58135,71.62536 -41.99379,20.93611 -89.71225,30.68679 -125.848,25.7155 z"
       id="path23"
       transform="matrix(0.26458333,0,0,0.26458333,25.724927,33.392303)" />
    <path
       style="fill:#ffffff;stroke-width:2.02031"
       d="M 240.73526,333.99615 C 182.10996,325.81185 119.79153,293.51772 70.255309,245.65148 L 50.826583,226.87775 65.978871,212.62036 c 25.949918,-24.41731 80.581549,-63.38733 84.029019,-59.93987 0.58461,0.58461 -0.53839,6.38819 -2.49556,12.89684 -4.77778,15.88874 -4.72296,47.91816 0.10998,64.25621 11.43908,38.67053 41.84974,69.93544 79.98097,82.22765 19.02961,6.13451 52.56143,6.05261 70.71067,-0.17271 19.88488,-6.82064 33.98501,-15.62811 48.48955,-30.28833 29.95961,-30.28123 41.38171,-73.61152 30.41529,-115.3818 -2.16023,-8.22813 -3.73114,-15.15677 -3.49093,-15.39699 0.97969,-0.9797 32.75307,19.34859 48.70717,31.16236 9.39862,6.95954 24.91323,20.06056 34.47691,29.11337 l 17.38851,16.45966 -9.70644,9.95683 c -32.7764,33.62194 -90.60015,70.84878 -131.93487,84.93945 -29.95286,10.2107 -67.60256,14.93847 -91.92388,11.54312 z"
       id="path25"
       transform="matrix(0.26458333,0,0,0.26458333,25.724927,33.392303)" />
    <path
       style="fill:#0000ff;stroke-width:2.02031"
       d="m 237.54078,291.89531 c -42.11998,-10.99518 -72.56696,-50.7933 -72.56696,-94.85435 0,-20.46435 11.69332,-50.87884 23.67953,-61.5908 2.20032,-1.9664 13.0006,-5.96067 24.00063,-8.87616 28.12808,-7.45517 69.91151,-7.8343 96.77165,-0.87808 23.85798,6.17872 27.5987,8.30005 34.93279,19.81016 19.57102,30.71471 20.20205,70.89128 1.60913,102.45439 -7.1211,12.0887 -24.34152,28.31263 -37.49035,35.32088 -23.05809,12.28983 -46.12485,15.09088 -70.93642,8.61396 z m 48.09021,-49.93307 c 21.58091,-10.75422 31.6448,-35.64781 24.36817,-60.276 -3.2686,-11.0628 -20.45709,-28.40975 -31.06998,-31.35642 -25.28425,-7.02018 -48.31689,2.17684 -60.21951,24.04586 -13.44904,24.71032 -3.58205,56.05715 21.5628,68.50367 12.56637,6.22026 31.81675,5.83104 45.35852,-0.91711 z"
       id="path27"
       transform="matrix(0.26458333,0,0,0.26458333,25.724927,33.392303)" />
    <path
       style="fill:#5599ff;stroke-width:2.02031"
       d="m 237.7048,290.68373 c -31.67601,-8.82803 -58.49287,-35.55217 -67.83152,-67.597 -7.4087,-25.42236 0.1532,-64.181 15.95784,-81.79211 19.20161,-21.39637 102.07553,-26.05222 143.20212,-8.0451 18.90617,8.278 33.30969,48.34162 28.2838,78.67187 -5.89799,35.59326 -31.92395,65.9014 -66.5155,77.4596 -14.41022,4.81495 -38.384,5.40315 -53.09674,1.30274 z m 45.8335,-46.86082 c 9.39322,-3.34083 21.70947,-15.69492 26.08365,-26.1638 3.27866,-7.84695 3.76443,-30.46692 0.82056,-38.20987 -3.22989,-8.49526 -21.88903,-26.86591 -30.01008,-29.54609 -4.04732,-1.33574 -12.38601,-2.38126 -18.53043,-2.32338 -33.16693,0.31241 -56.31335,30.35028 -48.49633,62.93527 7.39956,30.84481 37.22767,45.01099 70.13263,33.30787 z"
       id="path29"
       transform="matrix(0.26458333,0,0,0.26458333,25.724927,33.392303)" />
  </g>
</svg>
